<?xml version="1.0" encoding="UTF-8"?>
<svg id="Layer_1" data-name="Layer 1" xmlns="http://www.w3.org/2000/svg" viewBox="0 0 144 252">
  <defs>
    <style>
      .cls-1 {
        fill: #c33;
      }
    </style>
  </defs>
  <path class="cls-1" d="M68.97,190.78c18.9,0,28.7-15.05,28.7-36.4,0-23.8-9.8-43.75-31.15-43.75-16.8,0-29.4,15.4-29.4,39.2s15.05,40.95,31.85,40.95Z"/>
  <path class="cls-1" d="M144,127.43h-22.18c.7,5.95,.7,11.9,.7,17.85,0,24.15-14.35,55.65-58.8,55.65-6.3,0-11.2-.7-15.4-1.05-4.2,2.45-15.4,9.1-15.4,19.25,0,8.05,8.05,14.7,24.5,14.7,11.9,0,26.25-1.05,41.65-1.05s36.14,2.11,44.9,19.22h.03V127.43Z"/>
  <path class="cls-1" d="M7.72,224.38c0-1.75,1.4-3.15,5.25-5.95,5.95-3.85,12.6-9.8,18.55-16.1,1.75-2.1,3.5-4.9,3.5-6.65-11.9-6.3-26.25-19.95-26.25-42.35,0-30.1,25.9-52.85,57.05-52.85,13.3,0,25.55,3.5,33.6,7,11.2,4.9,13.65,5.6,21.35,5.6h23.23V0H0V252H33.15c-13.6-3.54-25.43-15.4-25.43-27.62Z"/>
</svg>