<?xml version="1.0" encoding="UTF-8"?>
<svg id="Layer_1" data-name="Layer 1" xmlns="http://www.w3.org/2000/svg" viewBox="0 0 1296 200">
  <defs>
    <style>
      .cls-1 {
        fill: #BC1622;
      }
    </style>
  </defs>
  <path class="cls-1" d="M1102.68-760.46c0,217.35-129.15,500.85-529.2,500.85-56.7,0-100.8-6.3-138.6-9.45-37.8,22.05-138.6,81.9-138.6,173.25,0,72.46,72.46,132.3,220.51,132.3,107.1,0,236.25-9.45,374.86-9.45s325.27,18.95,404.1,172.95h.27V-921.12h-199.62c6.29,53.55,6.29,107.1,6.29,160.66Z"/>
  <path class="cls-1" d="M0-2068V200H298.34C175.94,168.15,69.46,61.38,69.46-48.55c0-15.75,12.6-28.34,47.25-53.55,53.55-34.65,113.41-88.2,166.96-144.9,15.75-18.91,31.5-44.1,31.5-59.85-107.1-56.7-236.25-179.55-236.25-381.16,0-270.91,233.1-475.66,513.46-475.66,119.69,0,229.94,31.5,302.4,63,100.81,44.1,122.85,50.4,192.15,50.4h209.07v-1017.73H0Z"/>
</svg>